<mxfile host="app.diagrams.net" modified="2023-06-14T19:38:48.590Z" agent="Mozilla/5.0 (Windows NT 10.0; Win64; x64) AppleWebKit/537.36 (KHTML, like Gecko) Chrome/114.0.0.0 Safari/537.36" version="21.3.8" etag="nSJmog-MsNooik2h6vvn" type="github">
  <diagram name="PÃ¡gina-1" id="tuXilqN4KyY0cvnCzp-1">
    <mxGraphModel>
      <root>
        <mxCell id="0" />
        <mxCell id="1" parent="0" />
      </root>
    </mxGraphModel>
  </diagram>
</mxfile>
